PathFileType	4	(X/Y/Z)	D:\Share\Shared_Data\Ergonomics\Sit To Stand Pertubation\S0\Free STS.trc
DataRate	CameraRate	NumFrames	NumMarkers	Units	OrigDataRate	OrigDataStartFrame	OrigNumFrames	
100	100	9	18	m	100	1671	191
Frame#	Time	R_Toe			R_ASIS			R_Pelvis			V_Sacral			L_Pelvis			L_ASIS			Clavical			R_Acromium			L_Acromium			Sternum			Torso			R_Thigh_Med			R_Thigh_Lat			R_Thigh			R_Shank_Med			R_Shank_Lat			R_Shank			R_Heel			
		X1	Y1	Z1	X2	Y2	Z2	X3	Y3	Z3	X4	Y4	Z4	X5	Y5	Z5	X6	Y6	Z6	X7	Y7	Z7	X8	Y8	Z8	X9	Y9	Z9	X10	Y10	Z10	X11	Y11	Z11	X12	Y12	Z12	X13	Y13	Z13	X14	Y14	Z14	X15	Y15	Z15	X16	Y16	Z16	X17	Y17	Z17	X18	Y18	Z18	

1671	3.13	0.3786304	0.047596111	0.14408748	-0.041461681	0.73868805	0.15102609	-0.16828331	0.71661774	0.19734572	-0.28176462	0.68056091	-0.031917553	-0.14517419	0.70940332	-0.21300073	-0.025972017	0.73682037	-0.16595683	-0.029677601	1.1235768	-0.01076117	-0.1138612	1.1775396	0.1332663	-0.11928342	1.1786035	-0.16292534	0.0029822562	1.0313633	-0.027616192	-0.023827166	1.0757975	-0.13353856	0.31788373	0.49165088	0.087356499	0.29112985	0.50795721	0.22009599	0.22186273	0.64309753	0.13509518	0.25439346	0.10457436	0.10831062	0.1969278	0.092061646	0.19538231	0.25461548	0.30992404	0.22504765	0.15570445	0.049966282	0.14733376
1672	3.14	0.37859653	0.047637821	0.14399773	-0.041166702	0.73864294	0.15106494	-0.16809801	0.71670599	0.19737482	-0.28162808	0.68078705	-0.03188283	-0.14503247	0.70956116	-0.21295865	-0.025691395	0.73679352	-0.16591922	-0.027970629	1.1232542	-0.010704272	-0.11192624	1.1775707	0.13331447	-0.11736667	1.1785966	-0.16284996	0.0043169069	1.0308988	-0.027548464	-0.022312887	1.0754111	-0.13345508	0.31779065	0.49163187	0.087186157	0.2911445	0.50797379	0.21993707	0.22185765	0.6430954	0.13497159	0.25435081	0.10457226	0.10825459	0.19690364	0.092073448	0.19536369	0.25461066	0.30994046	0.22495226	0.15567551	0.049934711	0.14732239
1673	3.15	0.37855963	0.047678036	0.14391214	-0.040930141	0.73853162	0.15109599	-0.1679048	0.71680701	0.19740237	-0.2814812	0.68103284	-0.031850451	-0.14487573	0.70973199	-0.21292363	-0.025423077	0.73675189	-0.16588014	-0.026132633	1.1229001	-0.010641364	-0.10984328	1.177593	0.13336755	-0.11529836	1.1785874	-0.16276765	0.0057559471	1.0303965	-0.027475466	-0.020670864	1.0750179	-0.13337198	0.31769641	0.49161356	0.087029884	0.29114825	0.50798898	0.21978923	0.22185329	0.64309039	0.13485477	0.25431013	0.10457038	0.10820188	0.19687833	0.092082962	0.19534428	0.25460187	0.30995581	0.22486574	0.15564725	0.049902802	0.14731079
1674	3.16	0.37851874	0.04771875	0.14382962	-0.040756989	0.73835101	0.15112082	-0.1677056	0.71692169	0.19742796	-0.28132321	0.68129852	-0.031821688	-0.14470448	0.70991669	-0.21289647	-0.025179384	0.73669177	-0.16583995	-0.024156282	1.1225118	-0.010572022	-0.1076055	1.1776039	0.13342511	-0.11307114	1.1785757	-0.16267882	0.0073039851	1.0298538	-0.02739747	-0.018894569	1.074616	-0.13328877	0.31759811	0.49159604	0.086887299	0.29114069	0.50800305	0.21965302	0.22184927	0.64308313	0.13474591	0.2542699	0.10456934	0.10815157	0.19685133	0.092090981	0.19532257	0.25458733	0.30997113	0.22478697	0.1556188	0.049870602	0.14729857
1675	3.17	0.37847308	0.047761612	0.14375023	-0.040624962	0.73811823	0.15114223	-0.16750203	0.71705054	0.19745079	-0.28115323	0.68158508	-0.031797205	-0.14452013	0.71011646	-0.21287669	-0.02496077	0.73661273	-0.16579991	-0.022034269	1.1220881	-0.010495955	-0.10520673	1.1776011	0.13348685	-0.11067834	1.1785603	-0.16258388	0.0089648638	1.0292682	-0.027314638	-0.016979328	1.0742004	-0.13320421	0.3174928	0.49157922	0.086757782	0.29112186	0.50801611	0.21952885	0.22184489	0.64307434	0.13464633	0.25422878	0.10456976	0.10810294	0.19682198	0.092097824	0.19529759	0.25456482	0.30998694	0.22471455	0.15558919	0.049837784	0.14728517
1676	3.18	0.37842203	0.047807495	0.143675	-0.04049292	0.73786493	0.15116364	-0.16729422	0.71719366	0.19747047	-0.28097073	0.68189362	-0.031777096	-0.14432426	0.71033197	-0.2128631	-0.024752478	0.73651971	-0.16576215	-0.019760439	1.1216276	-0.010413323	-0.1026413	1.1775825	0.13355266	-0.10811438	1.17854	-0.16248262	0.0107419	1.0286378	-0.027227074	-0.014922634	1.0737649	-0.13311676	0.31737839	0.49156305	0.086640617	0.29109213	0.5080278	0.21941725	0.221839	0.64306372	0.1345571	0.25418544	0.10457173	0.10805559	0.19678944	0.092103127	0.19526862	0.25453236	0.31000308	0.22464705	0.15555771	0.049803379	0.14726978
1677	3.19	0.37836539	0.047856346	0.14360551	-0.040324387	0.73761853	0.15118758	-0.16707916	0.71734991	0.19748792	-0.2807757	0.68222534	-0.031761143	-0.14411781	0.71056384	-0.21285408	-0.024530962	0.73642047	-0.16572855	-0.017330469	1.1211294	-0.01032457	-0.099904152	1.1775459	0.13362241	-0.10537492	1.1785127	-0.16237424	0.012637813	1.0279603	-0.027134979	-0.012723497	1.073302	-0.13302478	0.31725394	0.49154666	0.086535423	0.29105151	0.50803714	0.21931871	0.22183054	0.6430506	0.13447937	0.2541385	0.10457469	0.10800939	0.19675275	0.092105743	0.19523531	0.25448853	0.31001843	0.22458325	0.15552365	0.049766171	0.14725146
1678	3.2	0.37830359	0.047907459	0.14354356	-0.040101749	0.73739172	0.15121474	-0.16685065	0.71751794	0.19750528	-0.28056876	0.68258167	-0.03174901	-0.14390082	0.71081201	-0.21284692	-0.024276527	0.73632141	-0.16569994	-0.014741907	1.1205925	-0.010230123	-0.096990608	1.1774894	0.13369621	-0.10245676	1.1784762	-0.16225728	0.014654981	1.0272341	-0.02703875	-0.010381368	1.0728044	-0.1329267	0.31711966	0.49152878	0.086442429	0.29099994	0.50804288	0.21923375	0.22181856	0.64303387	0.13441415	0.25408655	0.10457751	0.10796447	0.19671086	0.092104134	0.19519775	0.25443246	0.31003119	0.22452245	0.1554864	0.049725151	0.1472299
1679	3.21	0.37823746	0.047960026	0.1434906	-0.039823757	0.73718451	0.15124449	-0.16660048	0.71769684	0.19752435	-0.28035056	0.68296381	-0.031740177	-0.14367224	0.7110766	-0.21283774	-0.023980356	0.73622467	-0.16567596	-0.011993678	1.1200149	-0.010130318	-0.09389669	1.1774108	0.13377426	-0.099357712	1.1784283	-0.16213013	0.016796076	1.0264585	-0.026938871	-0.0078955917	1.072266	-0.13282109	0.31697662	0.49150797	0.086362404	0.29093732	0.50804327	0.21916267	0.22180275	0.64301208	0.13436227	0.25402882	0.10457862	0.10792111	0.1966628	0.092096611	0.19515637	0.2543642	0.31003903	0.22446454	0.15544537	0.049679512	0.14720503
